<svg preserveAspectRatio="none" overflow="visible" style="display: block;" width="11.8985" height="24.257" viewBox="0 0 11.8985 24.257" fill="none" xmlns="http://www.w3.org/2000/svg">
<g id="Group">
<path id="Vector" d="M0.85151 0.274494C0.758761 0.0485232 0.500397 -0.0594994 0.274438 0.0332191C0.0484799 0.125938 -0.0595074 0.384287 0.033242 0.610258L0.442376 0.442376L0.85151 0.274494ZM10.4856 23.6771C10.4097 23.9092 10.5363 24.159 10.7685 24.2349C11.0006 24.3109 11.2504 24.1842 11.3263 23.9521L10.906 23.8146L10.4856 23.6771ZM0.442376 0.442376L0.033242 0.610258C1.47224 4.11619 4.28582 7.3163 6.65309 10.4801C9.05216 13.6864 11.0137 16.8723 11.0139 20.4761L11.4562 20.4762L11.8985 20.4762C11.8982 16.5548 9.76362 13.161 7.36128 9.95027C4.92716 6.6971 2.23408 3.64294 0.85151 0.274494L0.442376 0.442376ZM11.4562 20.4762L11.0139 20.4761C11.014 21.5851 10.8224 22.6471 10.4856 23.6771L10.906 23.8146L11.3263 23.9521C11.6886 22.8442 11.8985 21.6893 11.8985 20.4762L11.4562 20.4762Z" fill="#0D0D80"/>
</g>
</svg>
